<svg width="44" height="44" viewBox="0 0 44 44" fill="none" xmlns="http://www.w3.org/2000/svg">
<path d="M33.5687 7.83065C33.0545 7.83065 32.5518 7.98314 32.1242 8.26883C31.6967 8.55452 31.3634 8.96059 31.1666 9.43567C30.9698 9.91076 30.9183 10.4335 31.0187 10.9379C31.119 11.4422 31.3666 11.9055 31.7302 12.2691C32.0938 12.6327 32.5571 12.8804 33.0615 12.9807C33.5658 13.081 34.0886 13.0295 34.5637 12.8327C35.0388 12.636 35.4448 12.3027 35.7305 11.8751C36.0162 11.4476 36.1687 10.9449 36.1687 10.4307C36.1687 9.74109 35.8948 9.07977 35.4072 8.59217C34.9196 8.10458 34.2583 7.83065 33.5687 7.83065ZM43.5354 13.074C43.4932 11.2763 43.1565 9.49769 42.5387 7.80898C41.9878 6.3641 41.1303 5.05575 40.0254 3.97398C38.9525 2.86341 37.6411 2.01137 36.1904 1.48232C34.5061 0.845666 32.7255 0.501273 30.9254 0.463984C28.6287 0.333984 27.892 0.333984 21.9987 0.333984C16.1054 0.333984 15.3687 0.333984 13.072 0.463984C11.2719 0.501273 9.49128 0.845666 7.80703 1.48232C6.359 2.01672 5.04872 2.86803 3.97203 3.97398C2.86145 5.04687 2.00941 6.35827 1.48036 7.80898C0.843713 9.49323 0.49932 11.2738 0.462031 13.074C0.332031 15.3707 0.332031 16.1073 0.332031 22.0007C0.332031 27.894 0.332031 28.6307 0.462031 30.9273C0.49932 32.7275 0.843713 34.5081 1.48036 36.1923C2.00941 37.643 2.86145 38.9544 3.97203 40.0273C5.04872 41.1333 6.359 41.9846 7.80703 42.519C9.49128 43.1556 11.2719 43.5 13.072 43.5373C15.3687 43.6673 16.1054 43.6673 21.9987 43.6673C27.892 43.6673 28.6287 43.6673 30.9254 43.5373C32.7255 43.5 34.5061 43.1556 36.1904 42.519C37.6411 41.9899 38.9525 41.1379 40.0254 40.0273C41.1352 38.9496 41.9934 37.6401 42.5387 36.1923C43.1565 34.5036 43.4932 32.725 43.5354 30.9273C43.5354 28.6307 43.6654 27.894 43.6654 22.0007C43.6654 16.1073 43.6654 15.3707 43.5354 13.074ZM39.6354 30.6673C39.6196 32.0427 39.3705 33.4053 38.8987 34.6973C38.5528 35.6402 37.9971 36.4922 37.2737 37.189C36.5709 37.9051 35.7207 38.4596 34.782 38.814C33.4901 39.2858 32.1274 39.5349 30.752 39.5507C28.5854 39.659 27.7837 39.6807 22.0854 39.6807C16.387 39.6807 15.5854 39.6807 13.4187 39.5507C11.9906 39.5774 10.5687 39.3575 9.21537 38.9007C8.31789 38.5282 7.50664 37.975 6.83203 37.2757C6.11289 36.5796 5.56419 35.7269 5.2287 34.784C4.69972 33.4735 4.40633 32.0799 4.36203 30.6673C4.36203 28.5007 4.23203 27.699 4.23203 22.0007C4.23203 16.3023 4.23203 15.5007 4.36203 13.334C4.37174 11.9279 4.62842 10.5345 5.12037 9.21732C5.5018 8.30279 6.08727 7.48758 6.83203 6.83398C7.49029 6.08902 8.30382 5.49736 9.21537 5.10065C10.5361 4.62408 11.928 4.37499 13.332 4.36398C15.4987 4.36398 16.3004 4.23398 21.9987 4.23398C27.697 4.23398 28.4987 4.23398 30.6654 4.36398C32.0407 4.37976 33.4034 4.62885 34.6954 5.10065C35.68 5.46606 36.5637 6.06015 37.2737 6.83398C37.9837 7.49954 38.5385 8.31324 38.8987 9.21732C39.3802 10.5367 39.6295 11.9295 39.6354 13.334C39.7437 15.5007 39.7654 16.3023 39.7654 22.0007C39.7654 27.699 39.7437 28.5007 39.6354 30.6673ZM21.9987 10.8857C19.8013 10.8899 17.6545 11.5455 15.8295 12.7694C14.0045 13.9933 12.5832 15.7307 11.7452 17.7621C10.9073 19.7935 10.6903 22.0277 11.1216 24.1823C11.5529 26.337 12.6132 28.3155 14.1685 29.8678C15.7239 31.4201 17.7044 32.4765 19.8599 32.9036C22.0154 33.3308 24.2491 33.1094 26.2789 32.2675C28.3086 31.4256 30.0433 30.0009 31.2636 28.1736C32.484 26.3462 33.1354 24.1981 33.1354 22.0007C33.1382 20.5384 32.852 19.09 32.2931 17.7387C31.7341 16.3875 30.9136 15.1601 29.8786 14.1271C28.8436 13.0941 27.6146 12.276 26.2623 11.7197C24.9099 11.1634 23.461 10.8799 21.9987 10.8857ZM21.9987 29.2157C20.5717 29.2157 19.1768 28.7925 17.9903 27.9997C16.8038 27.2069 15.879 26.0801 15.3329 24.7617C14.7868 23.4433 14.6439 21.9926 14.9223 20.5931C15.2007 19.1935 15.8879 17.9079 16.8969 16.8989C17.906 15.8898 19.1916 15.2027 20.5911 14.9243C21.9907 14.6459 23.4414 14.7888 24.7598 15.3349C26.0781 15.8809 27.205 16.8057 27.9978 17.9922C28.7906 19.1787 29.2137 20.5737 29.2137 22.0007C29.2137 22.9481 29.0271 23.8863 28.6645 24.7617C28.3019 25.6371 27.7705 26.4325 27.1005 27.1024C26.4305 27.7724 25.6351 28.3039 24.7598 28.6664C23.8844 29.029 22.9462 29.2157 21.9987 29.2157Z" fill="white"/>
</svg>
