<svg width="41" height="9" viewBox="0 0 41 9" fill="none" xmlns="http://www.w3.org/2000/svg">
<path d="M6.99841 0C3.41507 0 0.5 2.01871 0.5 4.50005C0.5 6.98139 3.41507 9 6.99841 9C10.3878 9 13.1779 7.19363 13.47 4.8982H18.1471V5.8448L40.5 5.8448V3.15554L18.147 3.15554V4.10202H13.4699C13.1777 1.80648 10.3878 0 6.99841 0ZM19.0102 3.95161L39.6367 3.95161V5.04839H19.0102V3.95161ZM12.6338 4.50005C12.6338 6.54222 10.1056 8.2036 6.99829 8.2036C3.89095 8.2036 1.36281 6.54222 1.36281 4.50005C1.36281 2.45778 3.89095 0.796295 6.99829 0.796295C10.1056 0.796295 12.6338 2.45778 12.6338 4.50005Z" fill="#BB2339"/>
</svg>
