<svg width="20" height="20" viewBox="0 0 20 20" fill="none" xmlns="http://www.w3.org/2000/svg">
<path d="M16.6665 1.66602H3.33317C2.4127 1.66602 1.6665 2.41221 1.6665 3.33268V6.66602C1.6665 7.58649 2.4127 8.33268 3.33317 8.33268H16.6665C17.587 8.33268 18.3332 7.58649 18.3332 6.66602V3.33268C18.3332 2.41221 17.587 1.66602 16.6665 1.66602Z" stroke="white" stroke-width="2" stroke-linecap="round" stroke-linejoin="round"/>
<path d="M16.6665 11.666H3.33317C2.4127 11.666 1.6665 12.4122 1.6665 13.3327V16.666C1.6665 17.5865 2.4127 18.3327 3.33317 18.3327H16.6665C17.587 18.3327 18.3332 17.5865 18.3332 16.666V13.3327C18.3332 12.4122 17.587 11.666 16.6665 11.666Z" stroke="white" stroke-width="2" stroke-linecap="round" stroke-linejoin="round"/>
<path d="M5 5H5.00833" stroke="white" stroke-width="2" stroke-linecap="round" stroke-linejoin="round"/>
<path d="M5 15H5.00833" stroke="white" stroke-width="2" stroke-linecap="round" stroke-linejoin="round"/>
</svg>
