<svg width="20" height="20" viewBox="0 0 20 20" fill="none" xmlns="http://www.w3.org/2000/svg">
<g clip-path="url(#clip0_102_1629)">
<path d="M10 12.5C11.3807 12.5 12.5 11.3807 12.5 10C12.5 8.61929 11.3807 7.5 10 7.5C8.61929 7.5 7.5 8.61929 7.5 10C7.5 11.3807 8.61929 12.5 10 12.5Z" stroke="#A3A3AD" stroke-width="2" stroke-linecap="round" stroke-linejoin="round"/>
<path d="M16.1668 12.5006C16.0559 12.752 16.0228 13.0308 16.0718 13.3011C16.1208 13.5715 16.2497 13.8209 16.4418 14.0173L16.4918 14.0673C16.6468 14.2221 16.7697 14.4059 16.8536 14.6082C16.9375 14.8106 16.9806 15.0275 16.9806 15.2465C16.9806 15.4655 16.9375 15.6824 16.8536 15.8847C16.7697 16.087 16.6468 16.2709 16.4918 16.4256C16.337 16.5806 16.1532 16.7035 15.9509 16.7874C15.7486 16.8713 15.5317 16.9145 15.3127 16.9145C15.0936 16.9145 14.8768 16.8713 14.6744 16.7874C14.4721 16.7035 14.2883 16.5806 14.1335 16.4256L14.0835 16.3756C13.8871 16.1835 13.6376 16.0547 13.3673 16.0056C13.097 15.9566 12.8182 15.9897 12.5668 16.1006C12.3204 16.2063 12.1101 16.3817 11.9621 16.6053C11.814 16.8288 11.7346 17.0908 11.7335 17.359V17.5006C11.7335 17.9427 11.5579 18.3666 11.2453 18.6792C10.9328 18.9917 10.5089 19.1673 10.0668 19.1673C9.6248 19.1673 9.20088 18.9917 8.88832 18.6792C8.57576 18.3666 8.40016 17.9427 8.40016 17.5006V17.4256C8.39371 17.1498 8.30443 16.8823 8.14392 16.6579C7.98341 16.4335 7.75911 16.2626 7.50016 16.1673C7.24882 16.0564 6.97 16.0233 6.69967 16.0723C6.42934 16.1213 6.17989 16.2502 5.9835 16.4423L5.9335 16.4923C5.77871 16.6473 5.59489 16.7702 5.39256 16.8541C5.19023 16.938 4.97335 16.9811 4.75433 16.9811C4.5353 16.9811 4.31843 16.938 4.1161 16.8541C3.91377 16.7702 3.72995 16.6473 3.57516 16.4923C3.4202 16.3375 3.29727 16.1537 3.2134 15.9514C3.12952 15.7491 3.08635 15.5322 3.08635 15.3131C3.08635 15.0941 3.12952 14.8772 3.2134 14.6749C3.29727 14.4726 3.4202 14.2888 3.57516 14.134L3.62516 14.084C3.81728 13.8876 3.94615 13.6381 3.99517 13.3678C4.04418 13.0975 4.01109 12.8187 3.90016 12.5673C3.79453 12.3208 3.61913 12.1106 3.39555 11.9626C3.17198 11.8145 2.90998 11.7351 2.64183 11.734H2.50016C2.05814 11.734 1.63421 11.5584 1.32165 11.2458C1.00909 10.9333 0.833496 10.5093 0.833496 10.0673C0.833496 9.62529 1.00909 9.20137 1.32165 8.88881C1.63421 8.57625 2.05814 8.40065 2.50016 8.40065H2.57516C2.85099 8.3942 3.1185 8.30492 3.34291 8.14441C3.56732 7.9839 3.73826 7.7596 3.8335 7.50065C3.94443 7.2493 3.97752 6.97049 3.9285 6.70016C3.87948 6.42983 3.75061 6.18038 3.5585 5.98398L3.5085 5.93398C3.35354 5.7792 3.2306 5.59538 3.14673 5.39305C3.06286 5.19072 3.01968 4.97384 3.01968 4.75482C3.01968 4.53579 3.06286 4.31891 3.14673 4.11658C3.2306 3.91425 3.35354 3.73044 3.5085 3.57565C3.66328 3.42069 3.8471 3.29776 4.04943 3.21388C4.25176 3.13001 4.46864 3.08684 4.68766 3.08684C4.90669 3.08684 5.12357 3.13001 5.3259 3.21388C5.52823 3.29776 5.71204 3.42069 5.86683 3.57565L5.91683 3.62565C6.11323 3.81776 6.36268 3.94664 6.633 3.99565C6.90333 4.04467 7.18215 4.01158 7.4335 3.90065H7.50016C7.74664 3.79501 7.95684 3.61961 8.10491 3.39604C8.25297 3.17246 8.33243 2.91047 8.3335 2.64232V2.50065C8.3335 2.05862 8.50909 1.6347 8.82165 1.32214C9.13421 1.00958 9.55813 0.833984 10.0002 0.833984C10.4422 0.833984 10.8661 1.00958 11.1787 1.32214C11.4912 1.6347 11.6668 2.05862 11.6668 2.50065V2.57565C11.6679 2.84381 11.7474 3.1058 11.8954 3.32937C12.0435 3.55295 12.2537 3.72835 12.5002 3.83398C12.7515 3.94491 13.0303 3.978 13.3007 3.92899C13.571 3.87997 13.8204 3.7511 14.0168 3.55898L14.0668 3.50898C14.2216 3.35402 14.4054 3.23109 14.6078 3.14722C14.8101 3.06334 15.027 3.02017 15.246 3.02017C15.465 3.02017 15.6819 3.06334 15.8842 3.14722C16.0866 3.23109 16.2704 3.35402 16.4252 3.50898C16.5801 3.66377 16.7031 3.84759 16.7869 4.04992C16.8708 4.25225 16.914 4.46912 16.914 4.68815C16.914 4.90718 16.8708 5.12405 16.7869 5.32638C16.7031 5.52871 16.5801 5.71253 16.4252 5.86732L16.3752 5.91732C16.183 6.11372 16.0542 6.36316 16.0052 6.63349C15.9561 6.90382 15.9892 7.18264 16.1002 7.43398V7.50065C16.2058 7.74712 16.3812 7.95733 16.6048 8.10539C16.8283 8.25346 17.0903 8.33291 17.3585 8.33398H17.5002C17.9422 8.33398 18.3661 8.50958 18.6787 8.82214C18.9912 9.1347 19.1668 9.55862 19.1668 10.0007C19.1668 10.4427 18.9912 10.8666 18.6787 11.1792C18.3661 11.4917 17.9422 11.6673 17.5002 11.6673H17.4252C17.157 11.6684 16.895 11.7478 16.6714 11.8959C16.4479 12.044 16.2725 12.2542 16.1668 12.5006V12.5006Z" stroke="#A3A3AD" stroke-width="2" stroke-linecap="round" stroke-linejoin="round"/>
</g>
<defs>
<clipPath id="clip0_102_1629">
<rect width="20" height="20" fill="white"/>
</clipPath>
</defs>
</svg>
