<svg width="18" height="17" viewBox="0 0 18 17" fill="currentColor" xmlns="http://www.w3.org/2000/svg">
<path d="M8.42937 0.75623C8.60898 0.203444 9.39102 0.203444 9.57063 0.75623L11.1104 5.49524C11.1908 5.74245 11.4211 5.90983 11.6811 5.90983H16.664C17.2452 5.90983 17.4869 6.6536 17.0166 6.99524L12.9854 9.92411C12.7751 10.0769 12.6871 10.3477 12.7674 10.5949L14.3072 15.3339C14.4868 15.8867 13.8541 16.3464 13.3839 16.0048L9.35267 13.0759C9.14238 12.9231 8.85762 12.9231 8.64733 13.0759L4.61609 16.0048C4.14586 16.3464 3.51317 15.8867 3.69278 15.3339L5.23258 10.5949C5.3129 10.3477 5.22491 10.0769 5.01462 9.92411L0.983374 6.99524C0.513146 6.6536 0.754811 5.90983 1.33605 5.90983H6.31893C6.57887 5.90983 6.80924 5.74245 6.88957 5.49524L8.42937 0.75623Z" fill="#FFEA28"/>
</svg>
